<?xml version="1.0" encoding="UTF-8"?>
<svg version="1.1" viewBox="0 0 2048 1109" width="770" height="417" xmlns="http://www.w3.org/2000/svg">
<path transform="translate(0)" d="m0 0h2048v1109h-2048z" fill="#FEFEFE"/>
<path transform="translate(1152,220)" d="m0 0h120l1 33 33 1v221l-1 186-1 114-1 10-64 1-403 2h-66v-33l-34-1v-199l2-332 1-1z" fill="#FEFEFE"/>
<path transform="translate(1152,220)" d="m0 0h120l1 33 33 1v221l-1 186-1 114-1 10-64 1-403 2h-66v-33l-34-1v-199l2-332 1-1zm-138 42-191 1-42 1-1 39-1 110v174l-1 158 1 1h206l277-2 1-253 1-119v-110z" fill="#434343"/>
<path transform="translate(892,375)" d="m0 0h39l3 5 17 41 18 43 16 39 16 38 15 37 5 11 2-2 16-39 17-41 18-43 34-82 3-7h40v252h-28l-1-45v-160h-2l-1 5-10 25-17 41-18 43-19 46-17 41-3 4-27 1-4-7-16-38-19-46-15-36-16-39-13-31-3-8-1 3-1 201h-28l-1-7v-244z" fill="#434343"/>
<path transform="translate(1278,261)" d="m0 0h20v94l-1 376-1 47-64 1-260 1h-194v-26l14-1 348-2h129v-41l1-55 1-153v-219l1-21z" fill="#FEFEFE"/>
<path transform="translate(1155,227)" d="m0 0h109l1 1-1 26-35 1-237 1h-219v57l-2 252v134l-1 46-1 1h-24l-1-1 1-152v-291l1-72 9-1 222-1z" fill="#FEFEFE"/>
<path transform="translate(739,224)" d="m0 0h2l1 48v22l-1 2h2l1-31v-34l2-1v363l-1 152h24l1-46v-134l2-252 1-57h121v1h-120l1 2 1 17v61l2 13v-85h2v-2h43v1h-42v39l-1 110v174l-1 158 133 1v1l-98 1-31 3-1 1 10 1v1h-14v26h117v1l-89 1v1l-23 2-9-3-2-21-1 26h65v1h-66v-33l-34-1v-199l2-320z" fill="#434343"/>
<path transform="translate(621,923)" d="m0 0 14 1 10 3 11 7 7 8 7 14 3 17-1 16-4 13-6 10-10 10-13 6-17 2-13-2-14-7-8-8-6-10-4-12-1-5v-21l4-13 5-10 8-9 7-5 12-4z" fill="#FEFEFE"/>
<path transform="translate(1290,911)" d="m0 0h7l4 3 12 32 11 28 25 65v3h-14l-4-2-12-34h-54l-9 24-5 12h-16l1-5 25-67 15-39 6-18 1-1z" fill="#434343"/>
<path transform="translate(362,911)" d="m0 0h6l8 9 12 17 14 19 12 16 3 1 7-11 14-19 13-18 9-12 1-1h15l-1 130h-13l-2-102-9 12-26 34-6 7-7 1-7-8-12-16-14-18-9-12-1 102h-13l-1-1v-129z" fill="#434343"/>
<path transform="translate(611,910)" d="m0 0h25l12 3 13 7 10 9 8 10 6 13 3 13v23l-4 16-7 13-9 10-8 7-14 7-8 2-17 1-15-2-15-6-9-7-9-9-7-12-5-15-1-7v-19l3-14 8-16 6-8 8-8 12-7zm10 13-13 2-9 4-9 7-6 8-5 10-3 11v21l4 15 5 9 9 10 10 6 9 3 11 1 15-2 14-7 10-10 7-14 3-16-1-16-3-12-6-11-8-9-12-7-8-2z" fill="#434343"/>
<path transform="translate(1673,911)" d="m0 0 14 1v129l-1 1h-13v-62h-75v61l-1 1h-13v-130h14v55l35-1h40z" fill="#434343"/>
<path transform="translate(1446,910)" d="m0 0h26l15 4 12 6 1 3-4 7-5 4-10-6-10-3-8-1h-9l-11 2-9 5-4 6-1 3v8l4 6 7 5 20 7 24 9 9 6 8 9 3 8v17l-3 9-9 10-10 6-11 3h-25l-16-4-14-7-2-3 1-5 4-6 6 1 14 7 8 2h22l11-4 5-5 3-6v-12l-4-6-8-5-20-8-22-8-11-7-7-9-3-7v-14l4-10 7-8 10-6z" fill="#434343"/>
<path transform="translate(1099,910)" d="m0 0h22l15 4 13 7 11 9 5 7-2 4-7 5-4-1-6-7-14-9-13-4h-20l-11 4-9 7-8 11-5 12-2 11v10l3 16 8 16 9 9 10 5 7 2 12 1 16-3 11-6 8-7 5-7 7 4 6 5-6 8-7 7-11 7-12 5-13 2h-9l-14-2-13-5-10-7-5-4-9-12-7-16-2-10v-23l4-16 7-14 11-12 8-6 8-4z" fill="#434343"/>
<path transform="translate(1299,673)" d="m0 0 2 3 1 7 1 102-64 1-208 1h-260v-26l2-1 1 10v12l10 2 19-2v-1l169-2 260-1h64v-47l1-10 1-45z" fill="#2D2D2D"/>
<path transform="translate(762,911)" d="m0 0h8l11 27 18 47 10 26 3 7 4-8 15-38 17-44 6-16 16-1-3 11-18 47-19 50-8 20-4 3h-13l-5-8-16-43-18-47-10-27-1-5z" fill="#434343"/>
<path transform="translate(1152,220)" d="m0 0h119v15h-2l-1-6-4-1h-109l-178 1-222 1-10 1v36l-1 26-1 3h-2v-72l-3-1 1-1z" fill="#2D2D2D"/>
<path transform="translate(1303,254)" d="m0 0h3v221l-1 186-1 114h-1l-1-5-1-89-1-5h-1l-1 45h-1v-461h3l4 2 1-7z" fill="#444"/>
<path transform="translate(1263,639)" d="m0 0h1l2 11 1 37v26l1 9v28l-128 2-187 1h-175l4-2 1-1 31-3 171-2 158-1h120z" fill="#2C2C2C"/>
<path transform="translate(992,255)" d="m0 0h274l-3 4-6 2-182 1-61 1h-234v2h-2l1 2v83l-1 13h-1l-1-22-1-8v-57l-1-19z" fill="#2B2B2B"/>
<path transform="translate(955,911)" d="m0 0 8 1v129l-1 1h-13l-1-51v-79z" fill="#434343"/>
<path transform="translate(1291,934)" d="m0 0 3 4 20 53v1h-44l2-9 14-37 4-11z" fill="#FEFEFE"/>
<path transform="translate(1265,273)" d="m0 0h1l1 7h1l1 41-1 17-3-1z" fill="#292929"/>
<path transform="translate(780,263)" d="m0 0h43v1h-42v39l-1 47h-1l-1-85h2z" fill="#444"/>
<path transform="translate(961,923)" d="m0 0h1v117l-3-1v-6l1-2z" fill="#292929"/>
<path transform="translate(1281,254)" d="m0 0h22l2 1v7h-4l-5-2-12-1-2-2 1-2z" fill="#292929"/>
<path transform="translate(892,375)" d="m0 0h39l1 5-5-2h-34l-2-2z" fill="#353535"/>
<path transform="translate(738,750)" d="m0 0h26l7 2v1h-34z" fill="#292929"/>
<path transform="translate(1112,376)" d="m0 0h38l-1 4-5-2-32-1z" fill="#292929"/>
</svg>
